<svg xmlns="http://www.w3.org/2000/svg" version="1.1" xmlns:xlink="http://www.w3.org/1999/xlink" xmlns:svgjs="http://svgjs.dev/svgjs" width="1000" height="1000" viewBox="0 0 1000 1000"><rect width="1000" height="1000" fill="#ffffff"></rect><g transform="matrix(0.7,0,0,0.7,150,150)"><svg viewBox="0 0 280 280" data-background-color="#ffffff" preserveAspectRatio="xMidYMid meet" height="1000" width="1000" xmlns="http://www.w3.org/2000/svg" xmlns:xlink="http://www.w3.org/1999/xlink"><g id="tight-bounds" transform="matrix(1,0,0,1,0,0)"><svg viewBox="0 0 280 280" height="280" width="280"><g><svg viewBox="0 0 280 280" height="280" width="280"><g><svg viewBox="0 0 280 280" height="280" width="280"><g id="textblocktransform"><svg viewBox="0 0 280 280" height="280" width="280" id="textblock"><g><svg viewBox="0 0 280 280" height="280" width="280"><g transform="matrix(1,0,0,1,74.00336708925556,75.85525209486671)"><svg viewBox="0 0 131.99326582148888 128.28949581026657" height="128.28949581026657" width="131.99326582148888"><g><svg xmlns="http://www.w3.org/2000/svg" xmlns:xlink="http://www.w3.org/1999/xlink" version="1.0" x="0" y="0" viewBox="26.585351943969727 24 50.414649963378906 49" enable-background="new 0 0 100 100" xml:space="preserve" height="128.28949581026657" width="131.99326582148888" class="icon-o-0" data-fill-palette-color="accent" id="o-0"><g fill="#000000" data-fill-palette-color="accent"><g fill="#000000" data-fill-palette-color="accent"><path d="M76.506 56.18l-11.624-6.822-1.906-8.575c-0.058-0.262-0.219-0.489-0.446-0.631l-8-5c-0.459-0.285-1.062-0.156-1.362 0.293l-3.875 5.813-4.808 2.885C44.184 44.323 44 44.649 44 45v5.764L41.105 56.553c-0.233 0.467-0.068 1.035 0.38 1.304l7.341 4.414c0.216 0.13 0.474 0.173 0.719 0.122l8.687-1.813 11.748 6.352c0.148 0.08 0.312 0.12 0.476 0.12 0.166 0 0.332-0.042 0.482-0.124l5.544-3.052C76.802 63.7 77 63.365 77 63v-5.958C77 56.688 76.812 56.359 76.506 56.18zM46 45.566l4-2.4 4 2.4v4.868l-4 2.4-4-2.4V45.566zM75 62.409l-4.548 2.504-11.59-6.267c-0.208-0.112-0.449-0.148-0.68-0.099l-8.662 1.807-6.212-3.734 2.104-4.207 4.073 2.444C49.644 54.953 49.822 55 50 55c0.178 0 0.356-0.047 0.515-0.143l5-3C55.816 51.677 56 51.351 56 51v-6c0-0.351-0.184-0.677-0.485-0.857l-4.101-2.461 2.879-4.319 6.822 4.263 1.909 8.591c0.06 0.271 0.23 0.505 0.47 0.645L75 57.615V62.409z" fill="#000000" data-fill-palette-color="accent"></path><circle cx="69.5" cy="59.5" r="1.5" fill="#000000" data-fill-palette-color="accent"></circle><path d="M55.81 64.089c-0.542-0.108-1.068 0.243-1.176 0.784L53.408 71h-6.676l-1.226-6.127c-0.056-0.282-0.231-0.526-0.48-0.669l-6.088-3.515c-0.25-0.143-0.55-0.174-0.82-0.081l-5.918 2.002-3.339-5.782 4.693-4.124c0.216-0.19 0.34-0.463 0.34-0.751v-7.03c0-0.288-0.124-0.562-0.34-0.751l-4.693-4.124 3.339-5.782 5.918 2.002c0.272 0.092 0.572 0.062 0.82-0.081l6.088-3.515c0.248-0.144 0.423-0.386 0.48-0.667L46.729 26h6.682l1.223 6.005c0.057 0.28 0.232 0.523 0.48 0.667l6.088 3.515c0.249 0.143 0.548 0.171 0.82 0.081l5.918-2.002 3.339 5.782-4.693 4.124c-0.415 0.364-0.455 0.996-0.091 1.411 0.364 0.416 0.997 0.457 1.411 0.091l5.309-4.665c0.358-0.314 0.444-0.838 0.206-1.251l-4.158-7.202c-0.239-0.414-0.736-0.599-1.187-0.448l-6.266 2.12-5.306-3.063-1.296-6.365C55.113 24.334 54.704 24 54.228 24h-8.316c-0.476 0-0.885 0.334-0.98 0.8l-1.296 6.365-5.306 3.063-6.266-2.12c-0.448-0.151-0.948 0.034-1.187 0.448l-4.158 7.202c-0.238 0.413-0.152 0.937 0.206 1.251l4.969 4.366V51.5l-4.969 4.367c-0.358 0.314-0.444 0.838-0.206 1.251l4.158 7.202c0.238 0.413 0.738 0.6 1.187 0.447l6.266-2.12 5.304 3.063 1.298 6.486C45.025 72.664 45.435 73 45.912 73h8.316c0.477 0 0.887-0.336 0.98-0.804l1.387-6.93C56.703 64.725 56.352 64.198 55.81 64.089z" fill="#000000" data-fill-palette-color="accent"></path></g></g></svg></g></svg></g><g><path d="M21.464 97.69l-9.791-3.059-2.409-0.916-0.065 0.209 2.124 1.825 5.342 5.032-7.259 1.107-2.746 0.303-0.065 0.21 2.462 0.605 9.792 3.058-0.499 1.597-14.273-4.458 0.676-2.166 6.344-0.845 2.944-0.132 0.053-0.17-2.345-1.784-4.736-4.306 0.677-2.166 14.273 4.459z" fill="#f5cc41" data-fill-palette-color="primary"></path><path d="M27.967 82.908l-0.733 1.596-4.622-0.659-2.242 4.884 3.514 3.074-0.715 1.559-11.641-10.486 0.89-1.938zM21.168 83.607l-5.885-0.791-1.887-0.348-0.088 0.19 1.496 1.204 4.454 3.908z" fill="#f5cc41" data-fill-palette-color="primary"></path><path d="M32.001 76.465v0c-0.425 0.729-0.939 1.304-1.541 1.728-0.606 0.429-1.299 0.683-2.079 0.76-0.777 0.087-1.651-0.007-2.62-0.282-0.966-0.281-2.024-0.757-3.174-1.428v0c-1.144-0.668-2.079-1.355-2.804-2.061-0.716-0.709-1.228-1.423-1.535-2.143-0.31-0.714-0.427-1.44-0.351-2.178 0.072-0.733 0.321-1.463 0.747-2.192v0c0.618-1.06 1.34-1.777 2.163-2.151 0.822-0.384 1.803-0.489 2.945-0.316v0l0.032 1.605c-0.841-0.176-1.569-0.153-2.184 0.07-0.624 0.225-1.173 0.744-1.647 1.557v0c-0.576 0.987-0.666 1.956-0.268 2.906 0.398 0.95 1.193 1.774 2.385 2.47v0l2.89 1.686c1.198 0.699 2.306 0.987 3.323 0.862 1.023-0.121 1.823-0.676 2.399-1.663v0c0.488-0.837 0.673-1.597 0.555-2.279-0.124-0.686-0.49-1.359-1.097-2.02v0l1.437-0.76c0.709 0.914 1.111 1.851 1.205 2.81 0.098 0.953-0.163 1.959-0.781 3.019z" fill="#f5cc41" data-fill-palette-color="primary"></path><path d="M41.098 62.679l-5.5-4.011-3.925 5.382 5.5 4.011-1.01 1.386-12.082-8.811 1.01-1.385 5.365 3.912 3.925-5.382-5.365-3.912 1.01-1.386 12.082 8.81z" fill="#f5cc41" data-fill-palette-color="primary"></path><path d="M48.316 54.317l-3.643 4.093-1.055-0.939 1.252-1.406-9.053-8.058-1.251 1.406-1.063-0.945 3.643-4.093 1.063 0.945-1.252 1.406 9.053 8.058 1.251-1.406z" fill="#f5cc41" data-fill-palette-color="primary"></path><path d="M56.935 46.089l-10.27-3.656-3.066-1.348-0.16 0.15 2.23 2.138 6.655 7.062-1.218 1.148-10.255-10.883 1.53-1.442 10.269 3.656 3.067 1.349 0.153-0.143-2.223-2.145-6.655-7.062 1.218-1.148 10.255 10.883z" fill="#f5cc41" data-fill-palette-color="primary"></path><path d="M68.565 36.969l-6.595 4.991-9.023-11.924 6.596-4.991 0.908 1.2-5.228 3.957 3.098 4.094 4.903-3.71 0.909 1.201-4.903 3.71 3.205 4.236 5.228-3.956z" fill="#f5cc41" data-fill-palette-color="primary"></path><path d="M85.975 27.035l-4.837-9.046-1.075-2.342-0.193 0.103 0.235 2.791 0.28 7.333-5.951-4.3-2.171-1.709-0.193 0.103 1.331 2.158 4.837 9.046-1.475 0.789-7.051-13.187 2.001-1.069 5.115 3.845 2.192 1.971 0.157-0.084-0.421-2.917-0.358-6.39 2.001-1.07 7.051 13.187z" fill="#f5cc41" data-fill-palette-color="primary"></path><path d="M100.976 21.056l-1.642 0.624-2.833-3.711-5.023 1.911 0.349 4.655-1.603 0.61-0.947-15.638 1.994-0.759zM95.638 16.787l-3.641-4.69-1.102-1.572-0.195 0.074 0.222 1.907 0.435 5.909z" fill="#f5cc41" data-fill-palette-color="primary"></path><path d="M108.743 18.8l-5.265 1.518-0.391-1.356 1.808-0.522-3.359-11.644-1.808 0.521-0.394-1.366 5.264-1.519 0.395 1.367-1.809 0.521 3.359 11.645 1.809-0.522z" fill="#f5cc41" data-fill-palette-color="primary"></path><path d="M120.422 16.438l-6.736-8.57-1.875-2.777-0.216 0.042 0.746 2.998 1.862 9.523-1.642 0.321-2.869-14.675 2.063-0.403 6.737 8.57 1.874 2.777 0.206-0.04-0.736-3-1.862-9.523 1.642-0.321 2.869 14.675z" fill="#f5cc41" data-fill-palette-color="primary"></path><path d="M134.594 1.55l-4.211 0.33 1.05 13.406-1.71 0.134-1.05-13.406-4.201 0.329-0.118-1.501 10.123-0.793z" fill="#f5cc41" data-fill-palette-color="primary"></path><path d="M147.134 15.033l-8.271-0.08 0.144-14.953 8.271 0.08-0.014 1.506-6.556-0.064-0.05 5.134 6.148 0.06-0.014 1.506-6.149-0.06-0.051 5.312 6.556 0.063z" fill="#f5cc41" data-fill-palette-color="primary"></path><path d="M158.974 16.346l-3.838-10.203-0.95-3.213-0.218-0.025-0.193 3.083-1.097 9.642-1.662-0.19 1.69-14.857 2.089 0.238 3.838 10.203 0.95 3.213 0.208 0.023 0.203-3.081 1.097-9.642 1.662 0.189-1.69 14.858z" fill="#f5cc41" data-fill-palette-color="primary"></path><path d="M175.207 19.883l-1.709-0.406-0.257-4.662-5.23-1.243-2.327 4.048-1.668-0.397 8.006-13.467 2.075 0.493zM173.191 13.352l-0.376-5.925-0.027-1.92-0.204-0.048-0.888 1.702-2.961 5.132z" fill="#f5cc41" data-fill-palette-color="primary"></path><path d="M185.764 23.499l-1.516-10.795-0.225-3.343-0.208-0.072-0.862 2.966-3.177 9.169-1.581-0.548 4.896-14.129 1.986 0.689 1.516 10.795 0.225 3.343 0.198 0.068 0.871-2.963 3.178-9.169 1.581 0.548-4.896 14.129z" fill="#f5cc41" data-fill-palette-color="primary"></path><path d="M195.885 28.343v0c-0.76-0.366-1.375-0.833-1.844-1.399-0.476-0.57-0.784-1.24-0.923-2.012-0.148-0.768-0.124-1.646 0.073-2.634 0.204-0.985 0.595-2.078 1.173-3.277v0c0.575-1.193 1.185-2.18 1.832-2.959 0.65-0.77 1.321-1.337 2.014-1.7 0.687-0.366 1.401-0.54 2.143-0.522 0.736 0.014 1.484 0.204 2.244 0.57v0c1.105 0.532 1.877 1.195 2.317 1.986 0.448 0.788 0.631 1.759 0.548 2.911v0l-1.598 0.159c0.109-0.853 0.028-1.577-0.242-2.171-0.274-0.604-0.835-1.11-1.683-1.519v0c-1.03-0.496-2.003-0.508-2.919-0.037-0.916 0.472-1.673 1.329-2.272 2.573v0l-1.452 3.015c-0.602 1.25-0.801 2.377-0.596 3.381 0.202 1.01 0.818 1.764 1.848 2.26v0c0.873 0.421 1.645 0.545 2.316 0.373 0.674-0.178 1.316-0.596 1.927-1.254v0l0.871 1.371c-0.855 0.78-1.757 1.254-2.705 1.425-0.942 0.173-1.966-0.007-3.072-0.54z" fill="#f5cc41" data-fill-palette-color="primary"></path><path d="M210.33 36.224l-7.079-4.279 7.735-12.797 7.079 4.279-0.779 1.288-5.611-3.391-2.656 4.394 5.262 3.18-0.779 1.289-5.262-3.18-2.748 4.546 5.611 3.391z" fill="#f5cc41" data-fill-palette-color="primary"></path><path d="M220.861 44.651v0c-0.827-0.684-1.406-1.456-1.735-2.316-0.328-0.85-0.441-1.753-0.339-2.709v0l1.612 0.003c-0.077 0.805-0.011 1.529 0.199 2.172 0.21 0.644 0.613 1.212 1.209 1.705v0c1.558 1.288 2.941 1.201 4.15-0.26v0c0.493-0.596 0.724-1.165 0.692-1.707-0.032-0.542-0.326-1.192-0.884-1.951v0l-0.682-0.931c-0.801-1.088-1.239-2.073-1.313-2.958-0.074-0.884 0.258-1.772 0.994-2.664v0c0.848-1.026 1.805-1.538 2.87-1.535 1.07 0.007 2.135 0.448 3.193 1.323v0c0.801 0.662 1.353 1.367 1.657 2.116 0.298 0.744 0.388 1.605 0.267 2.581v0l-1.548-0.112c0.086-0.706 0.037-1.335-0.149-1.888-0.186-0.552-0.591-1.085-1.214-1.6v0c-0.704-0.582-1.368-0.873-1.992-0.873-0.628 0.005-1.229 0.354-1.802 1.047v0c-0.462 0.559-0.66 1.11-0.593 1.654 0.066 0.533 0.365 1.161 0.899 1.882v0l0.689 0.923c0.426 0.578 0.752 1.115 0.977 1.608 0.224 0.484 0.343 0.958 0.358 1.422 0.019 0.459-0.065 0.91-0.25 1.353-0.195 0.444-0.489 0.903-0.88 1.376v0c-0.902 1.091-1.908 1.652-3.019 1.683-1.11 0.041-2.232-0.407-3.366-1.344z" fill="#f5cc41" data-fill-palette-color="primary"></path><path d="M233.167 55.853l-5.864-5.833 10.546-10.602 5.864 5.834-1.062 1.067-4.648-4.624-3.621 3.64 4.359 4.337-1.062 1.067-4.359-4.336-3.747 3.766 4.649 4.624z" fill="#f5cc41" data-fill-palette-color="primary"></path><path d="M241.723 56.121l-4.967 4.068-1.086-1.327 11.568-9.475 3.485 4.255c1.568 1.915 1.252 3.773-0.948 5.575v0c-1.855 1.52-3.487 1.711-4.895 0.576v0l-3.141 6.479-1.226-1.496 3.192-6.237zM242.856 55.193l2.372 2.896c0.808 0.987 1.741 1.048 2.798 0.182v0l1.133-0.928c1.057-0.866 1.181-1.792 0.373-2.779v0l-2.372-2.896z" fill="#f5cc41" data-fill-palette-color="primary"></path><path d="M246.403 73.416l-1.172-1.795 10.12-11.852 0.984 1.506-6.548 7.646-2.766 2.706 0.114 0.175 3.59-1.445 9.651-2.891 0.96 1.471z" fill="#f5cc41" data-fill-palette-color="primary"></path><path d="M252.685 84.18l-2.621-4.812 1.24-0.675 0.9 1.653 10.643-5.797-0.9-1.653 1.249-0.681 2.621 4.812-1.249 0.681-0.9-1.653-10.644 5.797 0.901 1.653z" fill="#f5cc41" data-fill-palette-color="primary"></path><path d="M255.975 92.195v0c-0.337-0.773-0.498-1.528-0.484-2.264 0.011-0.742 0.216-1.451 0.613-2.126 0.389-0.679 0.98-1.328 1.775-1.948 0.797-0.613 1.806-1.186 3.028-1.718v0c1.214-0.529 2.321-0.878 3.319-1.046 0.995-0.16 1.873-0.15 2.635 0.027 0.759 0.171 1.414 0.506 1.965 1.003 0.548 0.491 0.991 1.123 1.328 1.897v0c0.49 1.125 0.643 2.13 0.459 3.017-0.175 0.89-0.67 1.744-1.485 2.562v0l-1.314-0.921c0.639-0.575 1.05-1.176 1.234-1.804 0.187-0.636 0.092-1.386-0.284-2.248v0c-0.456-1.048-1.186-1.693-2.188-1.933-1.002-0.24-2.136-0.085-3.401 0.466v0l-3.068 1.336c-1.272 0.554-2.158 1.278-2.658 2.172-0.506 0.897-0.531 1.87-0.075 2.918v0c0.387 0.888 0.891 1.486 1.512 1.795 0.627 0.305 1.386 0.408 2.278 0.308v0l-0.235 1.607c-1.157 0.032-2.15-0.197-2.98-0.687-0.827-0.484-1.485-1.288-1.974-2.413z" fill="#f5cc41" data-fill-palette-color="primary"></path><path d="M261.772 107.593l-2.569-7.862 14.214-4.644 2.569 7.863-1.432 0.467-2.036-6.232-4.88 1.595 1.909 5.844-1.431 0.468-1.91-5.845-5.049 1.65 2.036 6.232z" fill="#f5cc41" data-fill-palette-color="primary"></path><path d="M10.916 189.507l9.791-3.058 2.503-0.618-0.066-0.209-2.786-0.291-7.255-1.097 5.338-5.042 2.085-1.812-0.066-0.21-2.368 0.904-9.792 3.059-0.499-1.597 14.273-4.458 0.677 2.165-4.735 4.306-2.346 1.784 0.053 0.17 2.944 0.132 6.344 0.845 0.677 2.166-14.273 4.458z" fill="#f5cc41" data-fill-palette-color="primary"></path><path d="M17.923 205.604l-0.733-1.597 3.514-3.074-2.242-4.884-4.622 0.659-0.715-1.558 15.54-1.99 0.89 1.939zM21.825 199.993l4.437-3.946 1.495-1.204-0.087-0.19-1.888 0.348-5.867 0.829z" fill="#f5cc41" data-fill-palette-color="primary"></path><path d="M22.005 213.271v0c-0.425-0.729-0.674-1.459-0.747-2.192-0.076-0.739 0.044-1.467 0.36-2.183 0.306-0.72 0.818-1.434 1.535-2.143 0.72-0.703 1.655-1.39 2.805-2.061v0c1.144-0.668 2.202-1.144 3.173-1.428 0.969-0.275 1.843-0.369 2.62-0.282 0.774 0.081 1.464 0.336 2.07 0.766 0.602 0.423 1.116 0.999 1.541 1.728v0c0.618 1.06 0.888 2.04 0.809 2.942-0.07 0.904-0.461 1.811-1.174 2.719v0l-1.413-0.762c0.567-0.646 0.905-1.291 1.014-1.935 0.111-0.654-0.071-1.387-0.546-2.2v0c-0.576-0.987-1.376-1.542-2.399-1.663-1.023-0.121-2.131 0.166-3.323 0.862v0l-2.89 1.686c-1.198 0.699-1.993 1.522-2.385 2.47-0.398 0.95-0.308 1.919 0.268 2.907v0c0.488 0.837 1.059 1.372 1.711 1.604 0.658 0.229 1.425 0.242 2.299 0.039v0l-0.045 1.624c-1.145 0.168-2.158 0.057-3.039-0.333-0.878-0.384-1.626-1.105-2.244-2.165z" fill="#f5cc41" data-fill-palette-color="primary"></path><path d="M32.169 227.734l5.5-4.01-3.925-5.383-5.5 4.011-1.01-1.385 12.082-8.811 1.01 1.386-5.365 3.912 3.925 5.382 5.365-3.912 1.01 1.386-12.082 8.81z" fill="#f5cc41" data-fill-palette-color="primary"></path><path d="M40.061 236.933l-3.643-4.093 1.055-0.939 1.251 1.406 9.053-8.058-1.252-1.406 1.063-0.945 3.643 4.093-1.063 0.945-1.251-1.406-9.053 8.058 1.252 1.406z" fill="#f5cc41" data-fill-palette-color="primary"></path><path d="M49.356 245.855l3.041-10.468 1.164-3.142-0.16-0.15-2.001 2.352-6.655 7.063-1.218-1.148 10.255-10.883 1.53 1.442-3.04 10.469-1.165 3.141 0.153 0.143 2.009-2.345 6.655-7.062 1.217 1.147-10.255 10.883z" fill="#f5cc41" data-fill-palette-color="primary"></path><path d="M61.897 255.746l-6.596-4.991 9.023-11.925 6.596 4.991-0.909 1.201-5.228-3.956-3.098 4.094 4.903 3.71-0.908 1.201-4.904-3.71-3.205 4.236 5.228 3.956z" fill="#f5cc41" data-fill-palette-color="primary"></path><path d="M80.764 266.612l4.837-9.046 1.351-2.195-0.194-0.103-2.19 1.746-5.942 4.305 0.271-7.338 0.216-2.754-0.194-0.103-1.055 2.305-4.837 9.046-1.475-0.789 7.051-13.186 2.001 1.07-0.358 6.39-0.421 2.917 0.157 0.083 2.192-1.97 5.115-3.846 2.001 1.07-7.051 13.187z" fill="#f5cc41" data-fill-palette-color="primary"></path><path d="M97.047 273.176l-1.642-0.625 0.35-4.655-5.024-1.911-2.832 3.711-1.603-0.61 9.685-12.314 1.993 0.758zM95.895 266.439l0.396-5.924 0.222-1.907-0.196-0.075-1.101 1.573-3.602 4.705z" fill="#f5cc41" data-fill-palette-color="primary"></path><path d="M105.68 275.72l-5.265-1.518 0.391-1.357 1.809 0.522 3.359-11.645-1.809-0.521 0.395-1.367 5.264 1.519-0.394 1.366-1.808-0.521-3.359 11.644 1.808 0.522z" fill="#f5cc41" data-fill-palette-color="primary"></path><path d="M118.302 278.309l-3.013-10.476-0.691-3.279-0.215-0.042-0.438 3.058-1.862 9.523-1.642-0.321 2.869-14.675 2.063 0.403 3.012 10.477 0.691 3.278 0.206 0.04 0.448-3.055 1.862-9.524 1.642 0.321-2.869 14.676z" fill="#f5cc41" data-fill-palette-color="primary"></path><path d="M135.832 266.557l-4.212-0.33-1.05 13.406-1.71-0.134 1.05-13.406-4.201-0.33 0.118-1.501 10.122 0.793z" fill="#f5cc41" data-fill-palette-color="primary"></path><path d="M147.241 279.92l-8.271 0.08-0.145-14.953 8.271-0.08 0.014 1.506-6.556 0.064 0.05 5.134 6.148-0.06 0.015 1.506-6.148 0.059 0.051 5.312 6.556-0.063z" fill="#f5cc41" data-fill-palette-color="primary"></path><path d="M160.224 278.536l-6.032-9.08-1.648-2.917-0.218 0.025 0.505 3.047 1.097 9.642-1.663 0.189-1.69-14.858 2.088-0.237 6.032 9.08 1.648 2.917 0.208-0.023-0.495-3.049-1.097-9.642 1.663-0.189 1.69 14.858z" fill="#f5cc41" data-fill-palette-color="primary"></path><path d="M177.762 274.771l-1.709 0.406-2.327-4.047-5.229 1.243-0.257 4.661-1.668 0.397 1.089-15.629 2.076-0.494zM173.023 269.846l-3.001-5.123-0.889-1.702-0.203 0.048-0.028 1.92-0.335 5.916z" fill="#f5cc41" data-fill-palette-color="primary"></path><path d="M189.382 270.845l-7.871-7.543-2.245-2.487-0.207 0.072 1.158 2.864 3.177 9.169-1.58 0.548-4.896-14.13 1.985-0.688 7.871 7.543 2.245 2.487 0.198-0.069-1.149-2.866-3.177-9.17 1.581-0.547 4.896 14.129z" fill="#f5cc41" data-fill-palette-color="primary"></path><path d="M200.908 265.986v0c-0.76 0.366-1.508 0.556-2.244 0.57-0.742 0.017-1.458-0.16-2.148-0.532-0.693-0.363-1.364-0.929-2.014-1.699-0.643-0.773-1.254-1.76-1.832-2.959v0c-0.575-1.193-0.966-2.286-1.172-3.278-0.197-0.988-0.222-1.866-0.074-2.634 0.142-0.765 0.451-1.432 0.928-2.002 0.47-0.567 1.085-1.033 1.844-1.399v0c1.105-0.532 2.104-0.724 2.997-0.573 0.896 0.141 1.768 0.603 2.618 1.385v0l-0.871 1.348c-0.599-0.617-1.215-1.005-1.849-1.164-0.643-0.162-1.388-0.039-2.237 0.37v0c-1.03 0.496-1.646 1.249-1.848 2.26-0.202 1.01-0.003 2.137 0.596 3.38v0l1.452 3.015c0.602 1.25 1.36 2.107 2.273 2.573 0.916 0.472 1.889 0.46 2.919-0.036v0c0.873-0.421 1.451-0.947 1.735-1.579 0.281-0.638 0.354-1.401 0.221-2.289v0l1.615 0.174c0.077 1.155-0.114 2.156-0.572 3.003-0.452 0.845-1.231 1.533-2.337 2.066z" fill="#f5cc41" data-fill-palette-color="primary"></path><path d="M216.046 257.136l-7.078 4.278-7.735-12.797 7.079-4.278 0.778 1.288-5.611 3.392 2.656 4.394 5.262-3.181 0.779 1.289-5.262 3.18 2.748 4.547 5.611-3.392z" fill="#f5cc41" data-fill-palette-color="primary"></path><path d="M228.235 248.172v0c-0.827 0.684-1.695 1.107-2.601 1.268-0.897 0.162-1.805 0.103-2.724-0.176v0l0.306-1.583c0.776 0.227 1.499 0.298 2.171 0.213 0.672-0.085 1.306-0.374 1.902-0.866v0c1.558-1.288 1.733-2.663 0.525-4.125v0c-0.493-0.596-1.008-0.93-1.546-1.001-0.538-0.071-1.232 0.096-2.083 0.501v0l-1.042 0.495c-1.219 0.582-2.27 0.827-3.152 0.733-0.882-0.094-1.692-0.587-2.429-1.478v0c-0.848-1.026-1.171-2.062-0.968-3.108 0.209-1.05 0.842-2.012 1.901-2.887v0c0.801-0.662 1.597-1.071 2.389-1.228 0.787-0.153 1.649-0.079 2.586 0.223v0l-0.402 1.499c-0.677-0.218-1.305-0.287-1.882-0.208-0.577 0.079-1.177 0.376-1.8 0.891v0c-0.704 0.582-1.115 1.179-1.233 1.792-0.113 0.618 0.117 1.274 0.69 1.967v0c0.462 0.559 0.966 0.857 1.512 0.893 0.536 0.036 1.209-0.14 2.019-0.529v0l1.035-0.503c0.648-0.31 1.236-0.529 1.763-0.657 0.517-0.129 1.005-0.157 1.464-0.084 0.454 0.068 0.881 0.235 1.282 0.501 0.4 0.276 0.795 0.65 1.186 1.123v0c0.902 1.091 1.263 2.185 1.085 3.281-0.169 1.098-0.82 2.116-1.954 3.053z" fill="#f5cc41" data-fill-palette-color="primary"></path><path d="M240.961 235.884l-5.864 5.833-10.546-10.601 5.864-5.834 1.062 1.068-4.648 4.624 3.621 3.64 4.359-4.336 1.062 1.067-4.359 4.337 3.746 3.766 4.648-4.624z" fill="#f5cc41" data-fill-palette-color="primary"></path><path d="M240.339 226.647l4.967 4.069-1.087 1.326-11.568-9.475 3.485-4.255c1.568-1.915 3.452-1.971 5.653-0.168v0c1.855 1.52 2.365 3.081 1.529 4.685v0l6.97 1.803-1.225 1.497-6.743-1.901zM239.206 225.72l2.372-2.896c0.808-0.987 0.684-1.913-0.373-2.78v0l-1.132-0.927c-1.057-0.866-1.99-0.805-2.798 0.182v0l-2.373 2.896z" fill="#f5cc41" data-fill-palette-color="primary"></path><path d="M255.657 216.527l-1.172 1.795-14.922-4.497 0.983-1.506 9.634 2.918 3.59 1.444 0.114-0.175-2.767-2.705-6.53-7.673 0.961-1.471z" fill="#f5cc41" data-fill-palette-color="primary"></path><path d="M262.39 205.008l-2.621 4.812-1.24-0.675 0.901-1.653-10.643-5.797-0.901 1.653-1.249-0.681 2.621-4.811 1.249 0.68-0.9 1.653 10.643 5.797 0.9-1.653z" fill="#f5cc41" data-fill-palette-color="primary"></path><path d="M266.586 196.328v0c-0.337 0.773-0.779 1.406-1.328 1.897-0.551 0.497-1.209 0.831-1.974 0.999-0.762 0.178-1.64 0.187-2.636 0.027-0.992-0.166-2.099-0.515-3.319-1.046v0c-1.214-0.529-2.223-1.101-3.027-1.718-0.795-0.62-1.386-1.269-1.775-1.948-0.392-0.672-0.593-1.38-0.604-2.122-0.014-0.736 0.147-1.491 0.484-2.264v0c0.49-1.125 1.122-1.922 1.896-2.39 0.771-0.478 1.733-0.698 2.887-0.659v0l0.22 1.59c-0.856-0.076-1.576 0.032-2.16 0.325-0.593 0.297-1.077 0.877-1.453 1.74v0c-0.456 1.048-0.431 2.021 0.075 2.918 0.506 0.897 1.392 1.621 2.658 2.172v0l3.068 1.336c1.272 0.554 2.406 0.709 3.401 0.466 1.002-0.24 1.731-0.885 2.187-1.933v0c0.387-0.888 0.482-1.665 0.284-2.328-0.204-0.667-0.646-1.293-1.326-1.878v0l1.337-0.923c0.812 0.825 1.321 1.708 1.527 2.649 0.209 0.935 0.068 1.965-0.422 3.09z" fill="#f5cc41" data-fill-palette-color="primary"></path><path d="M272.276 179.74l-2.568 7.863-14.214-4.644 2.568-7.862 1.432 0.467-2.036 6.233 4.88 1.594 1.909-5.844 1.432 0.467-1.91 5.845 5.05 1.649 2.036-6.232z" fill="#f5cc41" data-fill-palette-color="primary"></path><path d="M2.433 141.951c0-3.208 2.601-5.808 5.808-5.808 3.208 0 5.808 2.601 5.809 5.808 0 3.208-2.601 5.808-5.809 5.808-3.208 0-5.808-2.601-5.808-5.808z" fill="#f5cc41" data-fill-palette-color="primary"></path><path d="M265.95 141.951c0-3.208 2.601-5.808 5.809-5.808 3.208 0 5.808 2.601 5.808 5.808 0 3.208-2.601 5.808-5.808 5.808-3.208 0-5.808-2.601-5.809-5.808z" fill="#f5cc41" data-fill-palette-color="primary"></path></g></svg></g></svg></g></svg></g></svg></g><defs></defs></svg><rect width="280" height="280" fill="none" stroke="none" visibility="hidden"></rect></g></svg></g></svg>